<mxfile host="app.diagrams.net" modified="2023-12-26T08:47:11.766Z" agent="Mozilla/5.0 (Windows NT 10.0; Win64; x64) AppleWebKit/537.36 (KHTML, like Gecko) Chrome/120.0.0.0 Safari/537.36 Edg/120.0.0.0" etag="PNx1qekelafLVA8r8CQ0" version="22.1.11" type="github" pages="2">
  <diagram name="Diagram Konteks" id="mLzjRX6N-IY0rJPgddoL">
    <mxGraphModel dx="2046" dy="577" grid="1" gridSize="10" guides="1" tooltips="1" connect="1" arrows="1" fold="1" page="1" pageScale="1" pageWidth="850" pageHeight="1100" math="0" shadow="0">
      <root>
        <mxCell id="0" />
        <mxCell id="1" parent="0" />
        <mxCell id="gXnzfhAb-yTEPR8kW89x-1" value="&lt;font face=&quot;Helvetica&quot; style=&quot;font-size: 24px;&quot;&gt;Sistem Penukaran Mata Uang&lt;/font&gt;" style="ellipse;whiteSpace=wrap;html=1;aspect=fixed;" vertex="1" parent="1">
          <mxGeometry x="305" y="190" width="240" height="240" as="geometry" />
        </mxCell>
        <mxCell id="gXnzfhAb-yTEPR8kW89x-2" value="&lt;span style=&quot;font-size: 14px;&quot;&gt;&lt;b&gt;Konsumen&lt;/b&gt;&lt;/span&gt;" style="rounded=0;whiteSpace=wrap;html=1;" vertex="1" parent="1">
          <mxGeometry x="-50" y="280" width="120" height="60" as="geometry" />
        </mxCell>
        <mxCell id="gXnzfhAb-yTEPR8kW89x-3" value="&lt;span style=&quot;font-size: 14px;&quot;&gt;&lt;b&gt;Admin&lt;/b&gt;&lt;/span&gt;" style="rounded=0;whiteSpace=wrap;html=1;" vertex="1" parent="1">
          <mxGeometry x="710" y="280" width="120" height="60" as="geometry" />
        </mxCell>
        <mxCell id="gXnzfhAb-yTEPR8kW89x-4" value="" style="endArrow=classic;html=1;rounded=0;exitX=0.442;exitY=-0.007;exitDx=0;exitDy=0;exitPerimeter=0;entryX=0;entryY=0;entryDx=0;entryDy=0;" edge="1" parent="1" source="gXnzfhAb-yTEPR8kW89x-2" target="gXnzfhAb-yTEPR8kW89x-1">
          <mxGeometry width="50" height="50" relative="1" as="geometry">
            <mxPoint x="10" y="280" as="sourcePoint" />
            <mxPoint x="280" y="230" as="targetPoint" />
            <Array as="points">
              <mxPoint x="3" y="225" />
            </Array>
          </mxGeometry>
        </mxCell>
        <mxCell id="gXnzfhAb-yTEPR8kW89x-5" value="Data Konsumen" style="text;html=1;align=center;verticalAlign=middle;resizable=0;points=[];autosize=1;strokeColor=none;fillColor=none;" vertex="1" parent="1">
          <mxGeometry x="130" y="200" width="110" height="30" as="geometry" />
        </mxCell>
        <mxCell id="gXnzfhAb-yTEPR8kW89x-7" value="" style="endArrow=classic;html=1;rounded=0;entryX=0.5;entryY=1;entryDx=0;entryDy=0;exitX=0;exitY=1;exitDx=0;exitDy=0;" edge="1" parent="1" source="gXnzfhAb-yTEPR8kW89x-1" target="gXnzfhAb-yTEPR8kW89x-2">
          <mxGeometry width="50" height="50" relative="1" as="geometry">
            <mxPoint x="340" y="395" as="sourcePoint" />
            <mxPoint x="130" y="320" as="targetPoint" />
            <Array as="points">
              <mxPoint x="10" y="395" />
            </Array>
          </mxGeometry>
        </mxCell>
        <mxCell id="gXnzfhAb-yTEPR8kW89x-8" value="Laporan Hasil Pengajuan Penukaran Mata Uang" style="text;html=1;align=center;verticalAlign=middle;resizable=0;points=[];autosize=1;strokeColor=none;fillColor=none;" vertex="1" parent="1">
          <mxGeometry x="45" y="360" width="280" height="30" as="geometry" />
        </mxCell>
        <mxCell id="gXnzfhAb-yTEPR8kW89x-9" value="" style="endArrow=classic;html=1;rounded=0;entryX=0.5;entryY=0;entryDx=0;entryDy=0;exitX=0.91;exitY=0.22;exitDx=0;exitDy=0;exitPerimeter=0;" edge="1" parent="1" source="gXnzfhAb-yTEPR8kW89x-1" target="gXnzfhAb-yTEPR8kW89x-3">
          <mxGeometry width="50" height="50" relative="1" as="geometry">
            <mxPoint x="520" y="239.99999999999997" as="sourcePoint" />
            <mxPoint x="757" y="267.6" as="targetPoint" />
            <Array as="points">
              <mxPoint x="770" y="243" />
            </Array>
          </mxGeometry>
        </mxCell>
        <mxCell id="gXnzfhAb-yTEPR8kW89x-10" value="Laporan Pengajuan Penukaran Mata Uang" style="text;html=1;align=center;verticalAlign=middle;resizable=0;points=[];autosize=1;strokeColor=none;fillColor=none;" vertex="1" parent="1">
          <mxGeometry x="520" y="210" width="250" height="30" as="geometry" />
        </mxCell>
        <mxCell id="gXnzfhAb-yTEPR8kW89x-11" value="" style="endArrow=classic;html=1;rounded=0;exitX=0.5;exitY=1;exitDx=0;exitDy=0;entryX=0.833;entryY=0.89;entryDx=0;entryDy=0;entryPerimeter=0;" edge="1" parent="1" source="gXnzfhAb-yTEPR8kW89x-3" target="gXnzfhAb-yTEPR8kW89x-1">
          <mxGeometry width="50" height="50" relative="1" as="geometry">
            <mxPoint x="530" y="430" as="sourcePoint" />
            <mxPoint x="580" y="380" as="targetPoint" />
            <Array as="points">
              <mxPoint x="770" y="400" />
            </Array>
          </mxGeometry>
        </mxCell>
        <mxCell id="gXnzfhAb-yTEPR8kW89x-12" value="Data Validasi Pengajuan Penukaran Mata Uang" style="text;html=1;align=center;verticalAlign=middle;resizable=0;points=[];autosize=1;strokeColor=none;fillColor=none;" vertex="1" parent="1">
          <mxGeometry x="520" y="400" width="280" height="30" as="geometry" />
        </mxCell>
        <mxCell id="gXnzfhAb-yTEPR8kW89x-13" value="" style="endArrow=classic;html=1;rounded=0;exitX=1;exitY=0;exitDx=0;exitDy=0;entryX=0.04;entryY=0.29;entryDx=0;entryDy=0;entryPerimeter=0;" edge="1" parent="1" source="gXnzfhAb-yTEPR8kW89x-2" target="gXnzfhAb-yTEPR8kW89x-1">
          <mxGeometry width="50" height="50" relative="1" as="geometry">
            <mxPoint x="80" y="290" as="sourcePoint" />
            <mxPoint x="350" y="240" as="targetPoint" />
            <Array as="points">
              <mxPoint x="70" y="260" />
            </Array>
          </mxGeometry>
        </mxCell>
        <mxCell id="gXnzfhAb-yTEPR8kW89x-14" value="Data Pengajuan&amp;nbsp; Penukaran Mata Uang" style="text;html=1;align=center;verticalAlign=middle;resizable=0;points=[];autosize=1;strokeColor=none;fillColor=none;" vertex="1" parent="1">
          <mxGeometry x="80" y="230" width="240" height="30" as="geometry" />
        </mxCell>
      </root>
    </mxGraphModel>
  </diagram>
  <diagram id="V0XueCmX7hXYN53HOLn0" name="Page-2">
    <mxGraphModel dx="1980" dy="551" grid="1" gridSize="10" guides="1" tooltips="1" connect="1" arrows="1" fold="1" page="1" pageScale="1" pageWidth="850" pageHeight="1100" math="0" shadow="0">
      <root>
        <mxCell id="0" />
        <mxCell id="1" parent="0" />
        <mxCell id="4GLscBDOUHQDwYpES_cA-2" value="&lt;span style=&quot;font-size: 14px;&quot;&gt;&lt;b&gt;Konsumen&lt;/b&gt;&lt;/span&gt;" style="rounded=0;whiteSpace=wrap;html=1;" vertex="1" parent="1">
          <mxGeometry x="-50" y="280" width="120" height="60" as="geometry" />
        </mxCell>
        <mxCell id="4GLscBDOUHQDwYpES_cA-3" value="&lt;span style=&quot;font-size: 14px;&quot;&gt;&lt;b&gt;Admin&lt;/b&gt;&lt;/span&gt;" style="rounded=0;whiteSpace=wrap;html=1;" vertex="1" parent="1">
          <mxGeometry x="1070" y="490" width="120" height="60" as="geometry" />
        </mxCell>
        <mxCell id="4GLscBDOUHQDwYpES_cA-4" value="" style="endArrow=classic;html=1;rounded=0;exitX=0.442;exitY=-0.007;exitDx=0;exitDy=0;exitPerimeter=0;entryX=0;entryY=0.5;entryDx=0;entryDy=0;" edge="1" parent="1" source="4GLscBDOUHQDwYpES_cA-2" target="4GLscBDOUHQDwYpES_cA-14">
          <mxGeometry width="50" height="50" relative="1" as="geometry">
            <mxPoint x="10" y="280" as="sourcePoint" />
            <mxPoint x="340.14718625761407" y="225.14718625761407" as="targetPoint" />
            <Array as="points">
              <mxPoint y="110" />
            </Array>
          </mxGeometry>
        </mxCell>
        <mxCell id="4GLscBDOUHQDwYpES_cA-5" value="Data Konsumen Baru" style="text;html=1;align=center;verticalAlign=middle;resizable=0;points=[];autosize=1;strokeColor=none;fillColor=none;" vertex="1" parent="1">
          <mxGeometry x="115" y="80" width="140" height="30" as="geometry" />
        </mxCell>
        <mxCell id="4GLscBDOUHQDwYpES_cA-6" value="" style="endArrow=classic;html=1;rounded=0;entryX=0.5;entryY=1;entryDx=0;entryDy=0;exitX=1;exitY=0;exitDx=0;exitDy=0;" edge="1" parent="1" source="4GLscBDOUHQDwYpES_cA-35" target="4GLscBDOUHQDwYpES_cA-2">
          <mxGeometry width="50" height="50" relative="1" as="geometry">
            <mxPoint x="340.14718625761407" y="394.85281374238593" as="sourcePoint" />
            <mxPoint x="130" y="320" as="targetPoint" />
            <Array as="points">
              <mxPoint x="197" y="480" />
              <mxPoint x="10" y="480" />
            </Array>
          </mxGeometry>
        </mxCell>
        <mxCell id="4GLscBDOUHQDwYpES_cA-7" value="Laporan Hasil Pengajuan Penukaran Mata Uang" style="text;html=1;align=center;verticalAlign=middle;resizable=0;points=[];autosize=1;strokeColor=none;fillColor=none;" vertex="1" parent="1">
          <mxGeometry x="10" y="445" width="280" height="30" as="geometry" />
        </mxCell>
        <mxCell id="4GLscBDOUHQDwYpES_cA-8" value="" style="endArrow=classic;html=1;rounded=0;entryX=0.5;entryY=0;entryDx=0;entryDy=0;exitX=0.91;exitY=0.22;exitDx=0;exitDy=0;exitPerimeter=0;" edge="1" parent="1" target="4GLscBDOUHQDwYpES_cA-3">
          <mxGeometry width="50" height="50" relative="1" as="geometry">
            <mxPoint x="778.4800000000001" y="457.79999999999995" as="sourcePoint" />
            <mxPoint x="1012.08" y="482.6" as="targetPoint" />
            <Array as="points">
              <mxPoint x="1130" y="458" />
            </Array>
          </mxGeometry>
        </mxCell>
        <mxCell id="4GLscBDOUHQDwYpES_cA-9" value="Laporan Pengajuan Penukaran Mata Uang" style="text;html=1;align=center;verticalAlign=middle;resizable=0;points=[];autosize=1;strokeColor=none;fillColor=none;" vertex="1" parent="1">
          <mxGeometry x="775.08" y="425" width="250" height="30" as="geometry" />
        </mxCell>
        <mxCell id="4GLscBDOUHQDwYpES_cA-10" value="" style="endArrow=classic;html=1;rounded=0;exitX=0.5;exitY=1;exitDx=0;exitDy=0;entryX=1;entryY=0.5;entryDx=0;entryDy=0;" edge="1" parent="1" source="4GLscBDOUHQDwYpES_cA-3" target="4GLscBDOUHQDwYpES_cA-16">
          <mxGeometry width="50" height="50" relative="1" as="geometry">
            <mxPoint x="785.08" y="645" as="sourcePoint" />
            <mxPoint x="760.0000000000001" y="618.6" as="targetPoint" />
            <Array as="points">
              <mxPoint x="1130" y="600" />
              <mxPoint x="830" y="600" />
            </Array>
          </mxGeometry>
        </mxCell>
        <mxCell id="4GLscBDOUHQDwYpES_cA-11" value="Data Validasi Pengajuan Penukaran Mata Uang" style="text;html=1;align=center;verticalAlign=middle;resizable=0;points=[];autosize=1;strokeColor=none;fillColor=none;" vertex="1" parent="1">
          <mxGeometry x="850" y="570" width="280" height="30" as="geometry" />
        </mxCell>
        <mxCell id="4GLscBDOUHQDwYpES_cA-12" value="" style="endArrow=classic;html=1;rounded=0;exitX=1;exitY=0.5;exitDx=0;exitDy=0;entryX=0;entryY=0.5;entryDx=0;entryDy=0;" edge="1" parent="1" source="4GLscBDOUHQDwYpES_cA-2" target="4GLscBDOUHQDwYpES_cA-15">
          <mxGeometry width="50" height="50" relative="1" as="geometry">
            <mxPoint x="80" y="290" as="sourcePoint" />
            <mxPoint x="314.5999999999999" y="259.6" as="targetPoint" />
            <Array as="points" />
          </mxGeometry>
        </mxCell>
        <mxCell id="4GLscBDOUHQDwYpES_cA-13" value="Data Pengajuan&amp;nbsp; Penukaran Mata Uang" style="text;html=1;align=center;verticalAlign=middle;resizable=0;points=[];autosize=1;strokeColor=none;fillColor=none;" vertex="1" parent="1">
          <mxGeometry x="100" y="280" width="240" height="30" as="geometry" />
        </mxCell>
        <mxCell id="4GLscBDOUHQDwYpES_cA-14" value="&lt;b&gt;&lt;font style=&quot;font-size: 14px;&quot;&gt;1. Registrasi Anggota Baru&lt;/font&gt;&lt;/b&gt;" style="ellipse;whiteSpace=wrap;html=1;aspect=fixed;" vertex="1" parent="1">
          <mxGeometry x="370" y="30" width="170" height="170" as="geometry" />
        </mxCell>
        <mxCell id="4GLscBDOUHQDwYpES_cA-15" value="&lt;b&gt;&lt;font style=&quot;font-size: 14px;&quot;&gt;2. Mengajukan Penukaran Uang&lt;/font&gt;&lt;/b&gt;" style="ellipse;whiteSpace=wrap;html=1;aspect=fixed;" vertex="1" parent="1">
          <mxGeometry x="370" y="220" width="190" height="190" as="geometry" />
        </mxCell>
        <mxCell id="4GLscBDOUHQDwYpES_cA-16" value="&lt;b&gt;&lt;font style=&quot;font-size: 14px;&quot;&gt;4. Validasi Penukaran Uang&lt;/font&gt;&lt;/b&gt;" style="ellipse;whiteSpace=wrap;html=1;aspect=fixed;" vertex="1" parent="1">
          <mxGeometry x="360" y="495" width="210" height="210" as="geometry" />
        </mxCell>
        <mxCell id="4GLscBDOUHQDwYpES_cA-17" value="&lt;b&gt;Customer&lt;/b&gt;" style="shape=partialRectangle;whiteSpace=wrap;html=1;left=0;right=0;fillColor=none;" vertex="1" parent="1">
          <mxGeometry x="759.9999999999999" y="85" width="120" height="60" as="geometry" />
        </mxCell>
        <mxCell id="4GLscBDOUHQDwYpES_cA-18" value="" style="endArrow=classic;html=1;rounded=0;exitX=1;exitY=0.5;exitDx=0;exitDy=0;entryX=0;entryY=0.5;entryDx=0;entryDy=0;" edge="1" parent="1" source="4GLscBDOUHQDwYpES_cA-14" target="4GLscBDOUHQDwYpES_cA-17">
          <mxGeometry width="50" height="50" relative="1" as="geometry">
            <mxPoint x="400" y="220" as="sourcePoint" />
            <mxPoint x="450" y="170" as="targetPoint" />
          </mxGeometry>
        </mxCell>
        <mxCell id="4GLscBDOUHQDwYpES_cA-19" value="Data Konsumen" style="text;html=1;align=center;verticalAlign=middle;resizable=0;points=[];autosize=1;strokeColor=none;fillColor=none;" vertex="1" parent="1">
          <mxGeometry x="595.0799999999999" y="80" width="110" height="30" as="geometry" />
        </mxCell>
        <mxCell id="4GLscBDOUHQDwYpES_cA-20" value="" style="endArrow=classic;html=1;rounded=0;exitX=0.5;exitY=1;exitDx=0;exitDy=0;entryX=1;entryY=0;entryDx=0;entryDy=0;" edge="1" parent="1" source="4GLscBDOUHQDwYpES_cA-17" target="4GLscBDOUHQDwYpES_cA-15">
          <mxGeometry width="50" height="50" relative="1" as="geometry">
            <mxPoint x="550" y="125" as="sourcePoint" />
            <mxPoint x="770" y="125" as="targetPoint" />
            <Array as="points">
              <mxPoint x="820" y="190" />
              <mxPoint x="532" y="190" />
            </Array>
          </mxGeometry>
        </mxCell>
        <mxCell id="4GLscBDOUHQDwYpES_cA-26" value="" style="edgeStyle=orthogonalEdgeStyle;rounded=0;orthogonalLoop=1;jettySize=auto;html=1;entryX=1;entryY=0;entryDx=0;entryDy=0;" edge="1" parent="1" source="4GLscBDOUHQDwYpES_cA-21" target="4GLscBDOUHQDwYpES_cA-24">
          <mxGeometry relative="1" as="geometry">
            <Array as="points">
              <mxPoint x="1000" y="320" />
              <mxPoint x="1000" y="393" />
            </Array>
          </mxGeometry>
        </mxCell>
        <mxCell id="4GLscBDOUHQDwYpES_cA-21" value="&lt;b&gt;Transaction&lt;/b&gt;" style="shape=partialRectangle;whiteSpace=wrap;html=1;left=0;right=0;fillColor=none;" vertex="1" parent="1">
          <mxGeometry x="759.9999999999999" y="290" width="120" height="60" as="geometry" />
        </mxCell>
        <mxCell id="4GLscBDOUHQDwYpES_cA-22" value="" style="endArrow=classic;html=1;rounded=0;exitX=1;exitY=0.5;exitDx=0;exitDy=0;" edge="1" parent="1" source="4GLscBDOUHQDwYpES_cA-15" target="4GLscBDOUHQDwYpES_cA-21">
          <mxGeometry width="50" height="50" relative="1" as="geometry">
            <mxPoint x="400" y="400" as="sourcePoint" />
            <mxPoint x="450" y="350" as="targetPoint" />
          </mxGeometry>
        </mxCell>
        <mxCell id="4GLscBDOUHQDwYpES_cA-23" value="Data Penukaran Mata Uang" style="text;html=1;align=center;verticalAlign=middle;resizable=0;points=[];autosize=1;strokeColor=none;fillColor=none;" vertex="1" parent="1">
          <mxGeometry x="559.9999999999999" y="285" width="170" height="30" as="geometry" />
        </mxCell>
        <mxCell id="4GLscBDOUHQDwYpES_cA-24" value="&lt;b&gt;&lt;font style=&quot;font-size: 14px;&quot;&gt;3. Pelaporan&lt;/font&gt;&lt;/b&gt;" style="ellipse;whiteSpace=wrap;html=1;aspect=fixed;" vertex="1" parent="1">
          <mxGeometry x="585.0799999999999" y="365" width="190" height="190" as="geometry" />
        </mxCell>
        <mxCell id="4GLscBDOUHQDwYpES_cA-25" value="Data Konsumen Pengajuan" style="text;html=1;align=center;verticalAlign=middle;resizable=0;points=[];autosize=1;strokeColor=none;fillColor=none;" vertex="1" parent="1">
          <mxGeometry x="565.0799999999999" y="160" width="170" height="30" as="geometry" />
        </mxCell>
        <mxCell id="4GLscBDOUHQDwYpES_cA-27" value="Data Pengajuan Penukaran Mata Uang" style="text;html=1;align=center;verticalAlign=middle;resizable=0;points=[];autosize=1;strokeColor=none;fillColor=none;" vertex="1" parent="1">
          <mxGeometry x="760" y="360" width="230" height="30" as="geometry" />
        </mxCell>
        <mxCell id="4GLscBDOUHQDwYpES_cA-36" value="" style="edgeStyle=orthogonalEdgeStyle;rounded=0;orthogonalLoop=1;jettySize=auto;html=1;exitX=0.569;exitY=1.013;exitDx=0;exitDy=0;entryX=0.5;entryY=1;entryDx=0;entryDy=0;exitPerimeter=0;" edge="1" parent="1" source="4GLscBDOUHQDwYpES_cA-28" target="4GLscBDOUHQDwYpES_cA-35">
          <mxGeometry relative="1" as="geometry">
            <mxPoint x="920" y="790" as="sourcePoint" />
            <mxPoint x="140" y="815" as="targetPoint" />
            <Array as="points">
              <mxPoint x="898" y="760" />
              <mxPoint x="140" y="760" />
            </Array>
          </mxGeometry>
        </mxCell>
        <mxCell id="4GLscBDOUHQDwYpES_cA-28" value="&lt;b&gt;Transaction History&lt;/b&gt;" style="shape=partialRectangle;whiteSpace=wrap;html=1;left=0;right=0;fillColor=none;" vertex="1" parent="1">
          <mxGeometry x="829.9999999999999" y="645" width="120" height="60" as="geometry" />
        </mxCell>
        <mxCell id="4GLscBDOUHQDwYpES_cA-32" value="Data Final Pengajuan Penukaran Mata Uang" style="text;html=1;align=center;verticalAlign=middle;resizable=0;points=[];autosize=1;strokeColor=none;fillColor=none;" vertex="1" parent="1">
          <mxGeometry x="564.9999999999999" y="645" width="260" height="30" as="geometry" />
        </mxCell>
        <mxCell id="4GLscBDOUHQDwYpES_cA-33" value="" style="endArrow=classic;html=1;rounded=0;exitX=1;exitY=1;exitDx=0;exitDy=0;entryX=0;entryY=0.5;entryDx=0;entryDy=0;" edge="1" parent="1" source="4GLscBDOUHQDwYpES_cA-16" target="4GLscBDOUHQDwYpES_cA-28">
          <mxGeometry width="50" height="50" relative="1" as="geometry">
            <mxPoint x="730" y="630" as="sourcePoint" />
            <mxPoint x="780" y="580" as="targetPoint" />
          </mxGeometry>
        </mxCell>
        <mxCell id="4GLscBDOUHQDwYpES_cA-35" value="&lt;b&gt;&lt;font style=&quot;font-size: 14px;&quot;&gt;5. Pelaporan ke Konsumen&lt;/font&gt;&lt;/b&gt;" style="ellipse;whiteSpace=wrap;html=1;fillColor=none;" vertex="1" parent="1">
          <mxGeometry x="60" y="570" width="160" height="160" as="geometry" />
        </mxCell>
        <mxCell id="4GLscBDOUHQDwYpES_cA-37" value="Data Hasil Pengajuan Penukaran Mata Uang" style="text;html=1;align=center;verticalAlign=middle;resizable=0;points=[];autosize=1;strokeColor=none;fillColor=none;" vertex="1" parent="1">
          <mxGeometry x="339.9999999999999" y="720" width="260" height="30" as="geometry" />
        </mxCell>
      </root>
    </mxGraphModel>
  </diagram>
</mxfile>
